<svg width="26" height="26" viewBox="0 0 26 26" fill="none" xmlns="http://www.w3.org/2000/svg">
<g opacity="0.2">
<path fill-rule="evenodd" clip-rule="evenodd" d="M4.76969 12.5908C5.97869 13.0057 6.94178 14.0176 7.34478 15.3002L7.38811 15.4302C7.84961 16.7909 7.66219 18.2556 6.88869 19.3541C6.74786 19.5534 6.77928 19.7917 6.92769 19.9044L9.17236 21.6096C9.25144 21.6692 9.32836 21.6692 9.37603 21.6637C9.43019 21.6551 9.50928 21.6258 9.57319 21.5348L9.82344 21.1795C10.5699 20.1211 11.7724 19.4678 13.042 19.431C14.4677 19.4017 15.7482 20.055 16.5455 21.2066L16.6734 21.3918C16.7373 21.4828 16.8153 21.5132 16.8705 21.5218C16.9182 21.5316 16.9962 21.5283 17.0742 21.4677L19.3069 19.7831C19.4629 19.6661 19.4976 19.4158 19.3817 19.2479L19.1 18.8417C18.3742 17.793 18.1586 16.4323 18.5237 15.2027C18.9202 13.8637 19.9288 12.8042 21.2234 12.3709L21.4411 12.2972C21.6155 12.2398 21.7098 12.0232 21.648 11.8238L20.7954 9.09274C20.7554 8.96491 20.673 8.90749 20.6275 8.88366C20.5625 8.85008 20.4921 8.84466 20.4249 8.86741L20.0566 8.98983C18.7967 9.40908 17.4068 9.18158 16.3397 8.37883L16.2227 8.29108C15.2087 7.52841 14.6053 6.29883 14.6096 5.00316L14.6118 4.69983C14.6118 4.55574 14.5435 4.46583 14.5024 4.42466C14.4634 4.38458 14.3973 4.33691 14.3041 4.33691L11.5449 4.33366C11.3759 4.33366 11.2383 4.49508 11.2372 4.69441L11.2361 4.95658C11.2307 6.27283 10.6143 7.52516 9.58728 8.30841L9.44753 8.41458C8.31761 9.27366 6.84428 9.51633 5.50961 9.06133C5.45869 9.04399 5.41103 9.04724 5.36553 9.07108C5.33086 9.08841 5.26803 9.13283 5.23769 9.23141L4.35261 12.0437C4.28869 12.2485 4.39378 12.4619 4.59203 12.5302L4.76969 12.5908ZM9.33161 23.8337C8.80511 23.8337 8.29378 23.6625 7.86261 23.3342L5.61794 21.6302C4.54544 20.8177 4.30819 19.2544 5.08819 18.1462C5.49336 17.572 5.57678 16.8342 5.33844 16.1344L5.27886 15.9524C5.08061 15.3219 4.62778 14.8322 4.06769 14.6405H4.06661L3.89003 14.5787C2.57053 14.127 1.86636 12.7284 2.28561 11.3937L3.16961 8.58249C3.37003 7.94658 3.80228 7.43307 4.38728 7.13732C4.95928 6.84916 5.60603 6.80474 6.21053 7.01166C6.85944 7.23266 7.57986 7.11241 8.13561 6.68991L8.27536 6.58374C8.76936 6.20674 9.06728 5.59466 9.06944 4.94791L9.07053 4.68683C9.07594 3.29583 10.1864 2.16699 11.5438 2.16699H11.5481L14.3074 2.17024C14.9595 2.17133 15.5749 2.42916 16.0385 2.89608C16.5184 3.37816 16.7806 4.02274 16.7784 4.71066L16.7763 5.01291C16.7741 5.62608 17.0547 6.20566 17.5281 6.56099L17.644 6.64874C18.1413 7.02249 18.7891 7.12974 19.3709 6.93474L19.7381 6.81233C20.3632 6.60433 21.0284 6.65524 21.6144 6.95533C22.2157 7.26299 22.6599 7.79274 22.8635 8.44816L23.7161 11.1792C24.1278 12.4987 23.4149 13.9222 22.129 14.3523L21.9113 14.4249C21.2873 14.6351 20.7965 15.1551 20.6004 15.8181C20.4206 16.4258 20.5246 17.0942 20.881 17.6077L21.1627 18.014C21.9362 19.132 21.6892 20.7007 20.6124 21.5121L18.3796 23.1977C17.8434 23.6029 17.1858 23.7665 16.526 23.6614C15.8609 23.5542 15.2802 23.1858 14.8913 22.6247L14.7634 22.4383C14.3843 21.8923 13.7776 21.5608 13.1417 21.5966C12.5047 21.6139 11.9544 21.9162 11.5947 22.4275L11.3444 22.7828C10.9523 23.3386 10.3705 23.7015 9.70861 23.8055C9.58186 23.825 9.45619 23.8337 9.33161 23.8337ZM13 11.3752C12.1041 11.3752 11.375 12.1043 11.375 13.0002C11.375 13.8961 12.1041 14.6252 13 14.6252C13.8959 14.6252 14.625 13.8961 14.625 13.0002C14.625 12.1043 13.8959 11.3752 13 11.3752ZM13 16.7919C10.9092 16.7919 9.20832 15.0911 9.20832 13.0002C9.20832 10.9094 10.9092 9.20855 13 9.20855C15.0908 9.20855 16.7917 10.9094 16.7917 13.0002C16.7917 15.0911 15.0908 16.7919 13 16.7919Z" fill="black"/>
</g>
</svg>
