<svg width="26" height="26" viewBox="0 0 26 26" fill="none" xmlns="http://www.w3.org/2000/svg">
<g opacity="0.2">
<path fill-rule="evenodd" clip-rule="evenodd" d="M8.11969 10.3096C5.91835 12.6919 5.96494 16.4684 8.25944 18.8073C9.3796 19.9524 10.8681 20.5839 12.4541 20.585H12.4595C14.0488 20.585 15.5427 19.9534 16.6683 18.8073C19.0039 16.4261 18.9996 12.5532 16.6585 10.1753L13.4237 6.87003C13.0965 9.55886 12.0879 11.9184 10.2918 11.9184C9.74144 11.9184 8.84444 11.6735 8.11969 10.3096ZM12.4595 22.7517H12.4519C10.2788 22.7495 8.23994 21.8883 6.71135 20.3229C3.55452 17.1054 3.55019 11.8696 6.7016 8.65753L7.76652 7.58069C8.04169 7.30553 8.44144 7.19936 8.81952 7.29794C9.19544 7.39978 9.48794 7.69553 9.58544 8.07253C9.8346 9.03561 10.1314 9.50903 10.295 9.68886C10.6796 9.28369 11.3751 7.64678 11.3751 4.87669C11.3751 4.71745 11.3751 4.56686 11.3664 4.41628C11.3459 4.09669 11.4683 3.78361 11.7001 3.56261C12.1302 3.1542 12.8192 3.1542 13.2319 3.57886L18.2044 8.65861C21.3678 11.8696 21.3732 17.1054 18.2153 20.3239C16.678 21.8904 14.6349 22.7517 12.4595 22.7517Z" fill="black"/>
</g>
</svg>
