<svg width="26" height="26" viewBox="0 0 26 26" fill="none" xmlns="http://www.w3.org/2000/svg">
<path fill-rule="evenodd" clip-rule="evenodd" d="M20.5833 22.6295C20.5833 23.2939 20.0645 23.8332 19.4226 23.8332C18.7807 23.8332 18.2619 23.2939 18.2619 22.6295C18.2619 19.3109 15.6584 16.6109 12.4583 16.6109C9.25822 16.6109 6.65474 19.3109 6.65474 22.6295C6.65474 23.2939 6.1359 23.8332 5.49403 23.8332C4.85215 23.8332 4.33331 23.2939 4.33331 22.6295C4.33331 17.9832 7.97912 14.2035 12.4583 14.2035C16.9375 14.2035 20.5833 17.9832 20.5833 22.6295ZM12.4583 4.57391C13.7386 4.57391 14.7797 5.65363 14.7797 6.98132C14.7797 8.30901 13.7386 9.38873 12.4583 9.38873C11.178 9.38873 10.1369 8.30901 10.1369 6.98132C10.1369 5.65363 11.178 4.57391 12.4583 4.57391ZM12.4583 11.7961C15.0188 11.7961 17.1012 9.63669 17.1012 6.98132C17.1012 4.32595 15.0188 2.1665 12.4583 2.1665C9.89778 2.1665 7.81546 4.32595 7.81546 6.98132C7.81546 9.63669 9.89778 11.7961 12.4583 11.7961Z" fill="black"/>
</svg>
