<svg width="126" height="126" viewBox="0 0 126 126" fill="none" xmlns="http://www.w3.org/2000/svg">
<g clip-path="url(#clip0_6_13)">
<path fill-rule="evenodd" clip-rule="evenodd" d="M63 126C97.7939 126 126 97.7939 126 63C126 28.2061 97.7939 0 63 0C28.2061 0 0 28.2061 0 63C0 97.7939 28.2061 126 63 126Z" fill="#E2FBD7"/>
<path fill-rule="evenodd" clip-rule="evenodd" d="M62.9872 0C60.4689 0 58.4275 2.04392 58.4275 4.56522C58.4275 7.08652 60.4689 9.13043 62.9872 9.13043C92.7021 9.13043 116.791 33.2487 116.791 63C116.791 92.7513 92.7021 116.87 62.9872 116.87C48.8016 116.87 35.4957 111.355 25.5191 101.661C23.712 99.9045 20.8253 99.9477 19.0715 101.757C17.3177 103.566 17.3608 106.457 19.1679 108.212C30.8295 119.544 46.4061 126 62.9872 126C97.7385 126 125.91 97.7939 125.91 63C125.91 28.2061 97.7385 0 62.9872 0Z" fill="#34B53A"/>
</g>
<defs>
<clipPath id="clip0_6_13">
<rect width="126" height="126" fill="white"/>
</clipPath>
</defs>
</svg>
